# Blender 4.4.1
# www.blender.org
mtllib star.mtl
o star_thick
v 0.000000 0.506580 0.050658
v -0.119104 0.163933 0.050658
v -0.481787 0.156542 0.050658
v -0.192715 -0.062617 0.050658
v -0.297760 -0.409832 0.050658
v -0.000000 -0.202632 0.050658
v 0.297760 -0.409832 0.050658
v 0.192715 -0.062617 0.050658
v 0.481787 0.156542 0.050658
v 0.119104 0.163933 0.050658
v 0.000000 0.506580 -0.050658
v -0.119104 0.163933 -0.050658
v -0.481787 0.156542 -0.050658
v -0.192715 -0.062617 -0.050658
v -0.297760 -0.409832 -0.050658
v -0.000000 -0.202632 -0.050658
v 0.297760 -0.409832 -0.050658
v 0.192715 -0.062617 -0.050658
v 0.481787 0.156542 -0.050658
v 0.119104 0.163933 -0.050658
v 0.000000 0.000000 0.050658
v 0.000000 -0.000000 -0.050658
vn -0.0000 -0.0000 1.0000
vn -0.0000 -0.0000 -1.0000
vn -0.9446 0.3283 -0.0000
vn -0.0204 0.9998 -0.0000
vn -0.6041 -0.7969 -0.0000
vn -0.9572 0.2896 -0.0000
vn 0.5712 -0.8208 -0.0000
vn -0.5712 -0.8208 -0.0000
vn 0.9572 0.2896 -0.0000
vn 0.6041 -0.7969 -0.0000
vn 0.0204 0.9998 -0.0000
vn 0.9446 0.3283 -0.0000
vt 0.539589 0.412793
vt 0.539589 0.001599
vt 0.636267 0.279728
vt 0.436147 0.001599
vt 0.532825 0.134664
vt 0.436147 0.412793
vt 0.659688 0.250445
vt 0.659688 0.661639
vt 0.563010 0.383510
vt 0.001599 0.590401
vt 0.134664 0.493723
vt 0.412793 0.590401
vt 0.718240 0.001599
vt 0.718240 0.412793
vt 0.621562 0.134664
vt 0.723053 0.002575
vt 0.819730 0.135640
vt 0.723053 0.413769
vt 0.488910 0.491838
vt 0.077717 0.491838
vt 0.355845 0.395160
vt 0.001599 0.718240
vt 0.134664 0.621562
vt 0.412793 0.718240
vt 0.729950 0.753371
vt 0.318756 0.753371
vt 0.596885 0.656693
vt 0.294513 0.411904
vt 0.197836 0.278839
vt 0.294513 0.000710
vt 0.808020 0.811923
vt 0.711342 0.678858
vt 0.808020 0.400729
vt 0.413768 0.827537
vt 0.002575 0.827537
vt 0.280703 0.730860
vt 0.434262 0.433286
vt 0.337584 0.300221
vt 0.434262 0.022092
vt 0.097388 0.000710
vt 0.097388 0.411904
vt 0.000710 0.133775
vt 0.296598 0.001599
vt 0.393275 0.134664
vt 0.296598 0.412793
vt 0.662549 0.668470
vt 0.662549 0.257277
vt 0.759226 0.535405
vt 0.195950 0.411904
vt 0.099273 0.278839
vt 0.195950 0.000710
vt 0.000909 0.550390
vt 0.000909 0.139196
vt 0.097587 0.417325
vt 0.537704 0.536728
vt 0.441026 0.403663
vt 0.537704 0.125534
vt 0.647977 0.653832
vt 0.236783 0.653832
vt 0.514912 0.557155
vt 0.298876 0.921220
vt 0.298876 0.838982
vt 0.593328 0.838982
vt 0.341815 0.995386
vt 0.636267 0.913148
vt 0.636267 0.995386
vt 0.921220 0.388396
vt 0.838982 0.388396
vt 0.838982 0.093944
vt 0.143179 0.494604
vt 0.448900 0.494603
vt 0.426778 0.573811
vt 0.815561 0.002212
vt 0.897800 0.002212
vt 0.897800 0.296664
vt 0.835344 0.086578
vt 0.835344 0.392299
vt 0.756137 0.370177
vt 0.938786 0.862403
vt 0.938786 0.944641
vt 0.644334 0.944641
vt 0.948545 0.794358
vt 0.866306 0.499905
vt 0.948545 0.499905
vt 0.487935 0.870210
vt 0.487935 0.952448
vt 0.193482 0.952448
vt 0.810785 0.692867
vt 0.810785 0.387146
vt 0.889993 0.409268
vt 0.296664 0.831175
vt 0.296664 0.913413
vt 0.002212 0.913413
vt 0.983676 0.595280
vt 0.901437 0.300828
vt 0.983676 0.300828
vt 0.964159 0.856813
vt 0.881920 0.856813
vt 0.881920 0.562361
vt 0.296664 0.917051
vt 0.002212 0.999290
vt 0.002212 0.917051
vt 0.414471 0.835344
vt 0.436593 0.756136
vt 0.720192 0.835344
vt 0.296664 0.721877
vt 0.002212 0.804116
vt 0.002212 0.721877
vt 0.749468 0.756137
vt 0.727345 0.835344
vt 0.443747 0.756137
vt 0.983676 0.296664
vt 0.901437 0.002212
vt 0.983676 0.002212
vt 0.790454 0.819464
vt 0.790454 0.901703
vt 0.496002 0.901703
vt 0.878282 0.566706
vt 0.878282 0.872427
vt 0.799075 0.850305
s 0
usemtl マテリアル
f 21/1/1 1/2/1 2/3/1
f 21/4/1 2/5/1 3/6/1
f 21/7/1 3/8/1 4/9/1
f 21/10/1 4/11/1 5/12/1
f 21/13/1 5/14/1 6/15/1
f 21/16/1 6/17/1 7/18/1
f 21/19/1 7/20/1 8/21/1
f 21/22/1 8/23/1 9/24/1
f 21/25/1 9/26/1 10/27/1
f 21/28/1 10/29/1 1/30/1
f 22/31/2 12/32/2 11/33/2
f 22/34/2 13/35/2 12/36/2
f 22/37/2 14/38/2 13/39/2
f 22/40/2 15/41/2 14/42/2
f 22/43/2 16/44/2 15/45/2
f 22/46/2 17/47/2 16/48/2
f 22/49/2 18/50/2 17/51/2
f 22/52/2 19/53/2 18/54/2
f 22/55/2 20/56/2 19/57/2
f 22/58/2 11/59/2 20/60/2
f 1/61/3 11/62/3 12/63/3
f 1/64/3 12/65/3 2/66/3
f 2/67/4 12/68/4 13/69/4
f 2/70/4 13/71/4 3/72/4
f 3/73/5 13/74/5 14/75/5
f 3/76/5 14/77/5 4/78/5
f 4/79/6 14/80/6 15/81/6
f 4/82/6 15/83/6 5/84/6
f 5/85/7 15/86/7 16/87/7
f 5/88/7 16/89/7 6/90/7
f 6/91/8 16/92/8 17/93/8
f 6/94/8 17/95/8 7/96/8
f 7/97/9 17/98/9 18/99/9
f 7/100/9 18/101/9 8/102/9
f 8/103/10 18/104/10 19/105/10
f 8/106/10 19/107/10 9/108/10
f 9/109/11 19/110/11 20/111/11
f 9/112/11 20/113/11 10/114/11
f 10/115/12 20/116/12 11/117/12
f 10/118/12 11/119/12 1/120/12
